<svg width="46" height="46" viewBox="0 0 46 46" fill="none" xmlns="http://www.w3.org/2000/svg">
<path d="M31.7233 32.8571H45.1321V46H0V32.8571H15.6981V29.5714C15.6981 27.8629 15.8289 26.2638 16.0906 24.7743C16.3958 23.2848 16.7665 21.8391 17.2025 20.4371C17.6822 18.9914 18.2491 17.5676 18.9031 16.1657C19.5572 14.7638 20.2331 13.3181 20.9308 11.8286H19.6226C18.5325 14.0629 17.4423 15.9686 16.3522 17.5457C15.2621 19.079 14.0847 20.3276 12.8201 21.2914C11.5556 22.2114 10.1166 22.8905 8.50315 23.3286C6.93333 23.7229 5.08008 23.92 2.9434 23.92H2.28931V10.4486H5.55975C9.6587 10.4486 12.6457 9.59429 14.5208 7.88571C16.3958 6.13334 17.3333 3.61429 17.3333 0.32857V0H31.7233V32.8571Z" fill="white"/>
</svg>
